<?xml version="1.0" encoding="UTF-8"?>
<svg version="1.1" xmlns="http://www.w3.org/2000/svg" xmlns:xlink="http://www.w3.org/1999/xlink" x="0px" y="0px" width="100%" height="100%" viewBox="0 0 30 30" enable-background="new 0 0 30 30" xml:space="preserve">
 <g>
  <g id="svg_1">
   <path fill="#FFBA58" d="m14.576968,2.779708l0,26.628186l12.956462,0c0,0 1.084995,-4.322277 1.084995,-5.661852c0,-1.338783 0,-3.778135 0,-3.778135s0.451895,-1.874226 0.451895,-4.285083c0,-2.41006 -0.605156,-6.962656 -2.073963,-7.766407c0,0 -4.221441,-8.302239 -9.177965,-7.230576c-0.000271,0 -2.994585,-0.097744 -3.241424,2.093862l0,0.000005z" id="svg_2"/>
   <path fill="#736DAB" d="m15.242774,2.779708l0,26.62819l-12.673626,0c0,0 -1.262312,-4.370163 -1.262312,-5.709734c0,-1.338795 -0.013166,-3.730257 -0.013166,-3.730257s-0.363808,-1.874226 -0.363808,-4.285081c0,-2.41006 0.909519,-6.962658 2.364214,-7.766409c0,0 4.18191,-8.302238 9.091432,-7.230576c0,0 2.966355,-0.097745 2.857265,2.093863l0,0.000004z" id="svg_21"/>
  </g>
  <path d="m22.223219,4.99405l-10.39758,3.769611l-0.071962,11.628719c-0.341247,-0.044981 -0.714994,-0.032471 -1.10731,0.042511c-1.585522,0.313715 -2.870418,1.574821 -2.870418,2.81719c0,1.239882 1.282577,1.994787 2.870418,1.683569c1.582037,-0.312466 2.865774,-1.573582 2.865774,-2.814693c0,-0.045008 -0.013925,-0.083744 -0.017409,-0.129992l0,-9.78019l6.985112,-2.535976l0,7.441709c-0.34705,-0.048754 -0.726599,-0.038761 -1.128202,0.038734c-1.585508,0.313717 -2.87042,1.574842 -2.87042,2.817184c0,1.239882 1.282578,1.994795 2.87042,1.683569c1.548376,-0.303701 2.800787,-1.519812 2.855328,-2.734682l0.013929,0l0.002321,-13.927263z" id="svg_41"/>
 </g>

</svg>