<?xml version="1.0" encoding="UTF-8"?>
<svg version="1.1" xmlns="http://www.w3.org/2000/svg" xmlns:xlink="http://www.w3.org/1999/xlink" x="0px" y="0px" width="100%" height="100%" viewBox="0 0 170 118" enable-background="new 0 0 170 118" xml:space="preserve">
 <g>
  <g id="svg_1">
   <path id="svg_2" d="m84.236008,27.756138l0,67.286983l47.765991,0c0,0 4,-10.921997 4,-14.306976c0,-3.382996 0,-9.547012 0,-9.547012s1.666,-4.735992 1.666,-10.827999c0,-6.089996 -2.231003,-17.593994 -7.645996,-19.625c0,0 -15.563004,-20.978989 -33.835999,-18.270996c-0.001007,0 -11.040009,-0.246994 -11.949997,5.291z" fill="#FFBA58"/>
   <g id="svg_3">
    <path id="svg_4" d="m137.414001,70.920135c-0.220001,3.145996 0.218994,9.882996 -0.438004,11.906006c-0.655991,2.019989 -2.40799,7.860992 -3.280991,9.882996c-0.307007,0.708984 -0.584,1.557007 -0.866013,2.44101l-2.003998,-0.117004c0.126999,-0.330017 0.270004,-0.656006 0.462997,-0.97702c1.094009,-1.794983 0.877014,-4.491974 0.877014,-4.491974s2.187988,-6.514008 2.622986,-8.535004c0.438004,-2.020996 -0.653992,-7.639008 -0.436996,-9.213013c0.221008,-1.569992 0.875,-2.470993 1.969009,-5.61499c1.095001,-3.146008 -0.438004,-6.962994 -0.654999,-8.312008c-0.220001,-1.345993 -0.656006,-6.289001 -1.097,-7.636993c-0.436005,-1.350998 -3.061005,-5.393997 -3.227005,-6.348999c-0.164001,-0.955002 -4.410004,-2.138 -4.410004,-2.138c-0.220993,-2.244995 -1.550995,-3.871994 -1.550995,-3.871994c0,-2.246002 -7.658005,-8.537003 -7.658005,-8.537003c-2.406006,-1.798004 -13.345993,-5.615005 -16.188004,-6.291c-2.847992,-0.671997 -4.378998,1.125 -4.378998,1.125c-3.720993,-1.796997 -7.001999,0 -9.188004,1.347992c-2.187988,1.348999 -2.405991,3.595001 -2.405991,3.595001c-1.313004,1.572998 -1.094009,-2.020996 -1.094009,-2.020996s0.873001,-4.492004 4.156006,-5.615005c3.279999,-1.125 8.751999,-0.450989 8.751999,-0.450989c7.438995,-1.570007 19.255005,4.270996 22.757004,6.964996c3.5,2.696991 11.156006,12.354996 11.156006,12.354996s2.406998,2.022995 4.593994,6.740005c2.188004,4.718994 2.626999,14.828003 2.408005,16.849991c-0.220016,2.021008 -0.658005,3.816998 -0.876007,6.964001z"/>
    <g id="svg_5">
     <path id="svg_6" d="m104.889999,26.71114c-0.634995,-1.087997 -3.169998,1.085999 -5.070999,1.085999s-5.389008,-1.304993 -7.608002,-0.869003c-2.218994,0.437012 -5.072006,2.177002 -5.705002,3.697006c-0.634995,1.520996 0.951004,7.175995 2.854004,7.610992c0,0 -3.171997,3.480011 -1.587997,4.785004c1.587997,1.305008 2.222,0 2.222,-0.651993s-0.318008,-2.393005 0.949997,-2.828003c1.268997,-0.434006 2.854004,-1.957001 2.854004,-1.957001s-2.537003,0 -3.805008,-1.305008c-1.270996,-1.304993 -0.636002,-3.696991 0,-4.784988c0.633011,-1.088013 2.21701,-3.044998 3.805008,-3.044998c1.584,0 4.753998,1.304993 6.975998,1.087997c2.213989,-0.21701 4.750992,-1.738007 4.115997,-2.826004z"/>
     <path id="svg_7" d="m109.96199,33.017139c0,0 3.485001,3.914001 0,8.479004c-3.485992,4.567993 -3.169998,2.610992 -3.169998,2.610992l1.268005,1.738998c0,0 2.534988,-3.695999 4.755997,-3.478989c2.220001,0.217987 5.071991,2.174988 6.022995,5.437988c0.951004,3.262009 -1.268997,5.873001 -4.121002,6.307007c-2.854004,0.436005 -13.632996,-0.651993 -13.632996,-0.651993s0.953003,0.651993 0.634995,1.73999c-0.315994,1.085999 -0.94899,2.393005 -0.94899,2.393005s2.534988,-2.17601 8.875,-1.959c6.339996,0.220001 8.561996,1.306 11.097,5.438004c2.533997,4.133984 0.947998,10.221996 -0.318008,11.743984s-6.974991,1.959015 -7.606995,3.479004c-0.632004,1.520996 1.268997,3.045013 1.585999,4.131012c0.315994,1.088989 -0.949997,1.958984 -0.949997,1.958984s3.485001,-1.522003 6.020996,-1.304993c2.537003,0.21701 7.292999,2.609009 7.292999,2.609009s-0.953003,0.435974 -0.634995,1.087982s0.950989,1.304993 0.634995,1.957001c-0.315002,0.652008 -1.268005,1.085999 -1.268005,1.085999s1.584,0.218994 2.535004,-1.085999c0.949997,-1.304993 -0.951004,-1.52298 -0.315994,-2.175995c0.632996,-0.652008 1.901993,-0.43399 1.901993,-0.43399s-0.953003,-0.220001 -2.537003,-2.177002s-2.220001,-3.045013 -4.437988,-3.045013c-2.221008,0 -4.756012,0.218018 -4.756012,0.218018s-2.218994,-0.869019 -1.26799,-2.175018c0.949997,-1.304993 8.240997,-2.175995 8.240997,-2.175995s-2.218994,-1.306 -2.218994,-2.391998c0,-1.087997 1.584,-3.263992 4.437988,-4.785004c2.854004,-1.522003 5.070999,-3.915997 5.070999,-8.480999s1.209,-5.605988 3.109009,-7.347992l-0.666,-3c0,0 -1.809006,4.041 -3.710999,5.345993l-4.755997,-2.175995c0,0 0.950989,2.828003 3.487991,3.916c0,0 1.899002,3.695999 0.315002,6.307007c-1.585999,2.60899 -5.707001,4.56599 -5.707001,4.56599s-1.268005,-6.307995 -1.901001,-7.611004c-0.634003,-1.304993 -1.901993,-2.607986 -2.220001,-3.478989c-0.315002,-0.869003 1.904007,-6.307999 1.585999,-8.046997c-0.317001,-1.738007 -2.854004,-6.959015 -7.608002,-7.396011c0.001007,0.003998 -0.632996,-7.606995 -4.119995,-7.171997z"/>
     <path id="svg_8" d="m102.987991,43.890141c0,0 2.537003,-0.649994 4.757004,0.436005c2.218994,1.087997 3.804993,4.349991 1.901001,6.089996c0,0 -0.951004,0.651993 -1.901001,-0.436005c0,0 0.315002,-4.565994 -1.585999,-5.001999c-1.903,-0.434998 -3.171005,-1.087997 -3.171005,-1.087997z"/>
     <path id="svg_9" d="m105.524994,38.019138c0,0 -3.485001,-1.520996 -6.656006,-0.651993c-3.169998,0.868988 -5.071991,4.78299 -5.071991,4.78299s-1.585999,-2.826004 1.26799,-5c2.854004,-2.175995 7.608002,-0.871002 9.827011,-0.651993c2.216995,0.216995 2.535004,0.432999 0.632996,1.520996z"/>
     <path id="svg_10" d="m101.403992,36.279133c0,0 -0.949997,-1.740005 0.315994,-2.173996c1.268005,-0.436005 2.854004,-0.871002 2.219009,-1.52301c-0.633011,-0.651993 -3.803009,0.652008 -4.755005,2.609009c-0.951004,1.959 -0.951004,1.959 -0.951004,1.959l3.171005,-0.871002z"/>
     <path id="svg_11" d="m98.867996,45.197147c0,0 -6.022995,5.436005 -6.022995,11.089996c0,5.656006 2.853989,10.223003 5.071991,10.223003c2.220001,0 2.222,-1.957001 3.804001,-1.522003c1.585999,0.436996 3.805008,2.395996 1.585999,2.828003c-2.220993,0.436996 -4.437988,1.304993 -6.340988,0.436996c-1.902008,-0.871002 -4.121002,-1.959 -5.391006,-3.916c-1.266998,-1.956997 -0.949005,-6.089001 -1.266998,-8.264996s3.800995,-9.787003 5.388992,-10.873001c1.585007,-1.090012 3.171005,-1.960999 3.171005,-0.001999z"/>
     <path id="svg_12" d="m112.5,62.595142c0,0 -2.537003,-0.436996 -3.488007,-1.522995c-0.950989,-1.085999 -1.265991,0.218994 -0.632996,2.39299s0.951004,5.654003 0.315002,7.178997c-0.634995,1.521011 -3.487,5.653015 -7.291,5.218994c-3.806,-0.436981 -5.072006,-1.520996 -6.022995,-2.825989c-0.951004,-1.307007 -2.852997,-1.522003 -3.169998,-0.218994c-0.31601,1.304993 0.94899,2.828003 1.585999,3.695984c0.632996,0.869019 0.315002,0.869019 2.218994,1.520996c1.902008,0.654022 5.705994,1.52301 8.876007,0.436005c3.169998,-1.085999 6.022995,-5.871002 6.022995,-7.394989c0,-1.522003 0.633987,-6.307007 1.585999,-8.480999z"/>
    </g>
    <path id="svg_13" d="m135.263,81.767151c0,0 -0.343994,-8.243988 -2.677994,-9.910004s-3.008011,-1.417999 -3.080002,-2.136993c-0.055008,-0.555008 -0.109009,-0.748001 1.554993,-0.693008c1.332001,0.044998 4.871002,2.406006 4.871002,2.406006l-0.667999,10.334z"/>
    <path id="svg_14" d="m107.597,24.43314c0,0 3,1 2.334,2.666c-0.667999,1.667999 -0.666,2.334 0.666,2.334c1.334,0 2,-2 3.666,-1.334c1.667999,0.667999 0.334,3.334 2,3.667999c1.667999,0.332001 2.334,-0.001999 3.334,0.332001s4.666,3 4.334,4.334c-0.334,1.332001 -3.667999,-2 -4.667999,-1.334c-1,0.667999 -2.666,1.666 -1.332001,2.334c1.332001,0.666 5.332001,0.666 7,2.334c1.666,1.666 2.091995,2.613007 3,1.666c0.949005,-0.994003 -2,-7 -4,-8.666c-2,-1.667999 -13,-9.001999 -16.334,-8.334z"/>
    <path id="svg_15" d="m128.761002,53.131138c0,0 1.688995,0.705002 2.205002,0.518997c0.518005,-0.188004 1.830002,-1.360992 2.487991,-2.628998c0.655014,-1.268997 0.375,-2.255005 0.094009,-2.910004l1.408005,1.408005l0.751999,5.113998l-0.424011,-0.375c0,0 -0.141998,-1.268005 -0.608994,-1.220993s-1.501999,0.938995 -1.501999,0.938995l-3.003998,0.421997l-1.455002,-0.845993l0.046997,-0.421005z"/>
    <path id="svg_16" d="m133.028992,69.720139c0,0 1.056,0.554993 1.524994,0.334c0.473007,-0.223999 0.666,-1 0.666,-1l-0.416,2.108002l-1.108994,0l-0.666,-1.442001z"/>
    <path id="svg_17" d="m93.929993,72.267136c-0.869003,0.521011 -1.692993,0.930008 -1.524994,1.430008c0.166,0.5 1.524994,13.735992 7.526001,14.069977c6,0.332001 11.166,-1.5 14.166,0.5s-0.334,3.832001 -0.334,3.832001s-0.334,2.334015 2.334,0.5c0,0 0.832001,0.5 1,0c0.166,-0.5 0.334,-3.997986 -1.166,-4.832001s-3.667999,-1.5 -4.667999,-2.167999c-1,-0.665985 -7.836014,0.76001 -9.670013,0.432007c-3.842987,-0.690979 -3.578995,-4.028992 -5.078995,-6.528992s-1.751999,-7.735001 -2.584,-7.235001z"/>
    <path id="svg_18" d="m133.263,86.099152c0,0 -1.332001,3.667999 -3.332001,3.667999c0,0 2.666,1 2.332001,2.332001c-0.332001,1.333984 1,-6 1,-6z"/>
    <path id="svg_19" d="m115.763,91.445129c0,0 2.921997,-0.893005 5.253998,-0.796997c2.334,0.093994 3.337997,2.085999 3.337997,2.085999s-2.431992,-0.985992 -3.757996,-0.96701c-1.328003,0.02002 -3.675995,1.022003 -3.675995,1.022003l-1.158005,-1.343994z"/>
    <path id="svg_20" d="m100.496002,92.086151c0,0 -1.548004,-3.174011 -4.548004,-3.360992c-3,-0.187012 -2.559998,-0.205994 -3.559998,-0.39502c-1,-0.187988 -2.584,-3.417999 -3.645996,-3.667999c-1.061996,-0.25 -1.438004,-0.625 -1.875,-0.437988c-0.438004,0.187012 -0.188004,0.687988 0.061996,0.812012s1.188004,0.25 1.625,0.5c0.438004,0.25 1.25,2.875 3,3.687988c1.75,0.812988 3.111008,0.895996 3.798996,1.082001c0.688004,0.187988 2.894012,1.395996 3.955002,2.770996c0.000992,-0.001007 1.584,0.590973 1.188004,-0.990997z"/>
   </g>
   <path id="svg_21" d="m84.796997,27.756138l0,67.286983l-47.167995,0c0,0 -4.697998,-11.042999 -4.697998,-14.427979c0,-3.382996 -0.049004,-9.42601 -0.049004,-9.42601s-1.353996,-4.735992 -1.353996,-10.827999c0,-6.089996 3.384995,-17.593994 8.798996,-19.625c0,0 15.564003,-20.978989 33.835995,-18.270996c0,0 11.040009,-0.246994 10.634003,5.291z" fill="#736DAB"/>
   <path id="svg_22" d="m80.494003,66.02713c1.487991,-0.748001 2.332993,1 4.332993,1s4.333008,-2.334 5.333008,-1.001999c1,1.334 0.332993,0 0,1.667999c-0.333008,1.666 -3.104004,2.311005 -5.333008,2.334c-2.108002,0.020996 -3.000992,-0.334 -4.666992,-2.334s-0.332001,-1.332001 0.334,-1.666z"/>
   <path id="svg_23" d="m81.326996,48.027134c0,0 1.167007,-1.334 3.5,-1.334s3.832993,1.834 4.5,1.834s1.332993,-0.334 1.332993,-0.334s0.001007,-1.832001 -0.666,-2.166s-3.5,-1 -5,-1s-4.000992,0.998001 -4.833984,1.166c-0.833008,0.166 -1.667007,1.334 -1,1.834s2.166992,0 2.166992,0z"/>
   <g id="svg_24">
    <path id="svg_25" d="m32.342999,70.920135c0.220001,3.145996 -0.219002,9.882996 0.438004,11.906006c0.654999,2.019989 2.406998,7.860992 3.280998,9.882996c0.306999,0.708984 0.584,1.557007 0.865997,2.44101l2.004997,-0.117004c-0.126999,-0.330017 -0.269997,-0.656006 -0.463997,-0.97702c-1.094002,-1.794983 -0.875999,-4.491974 -0.875999,-4.491974s-2.188004,-6.514008 -2.624001,-8.535004c-0.437996,-2.020996 0.654999,-7.639008 0.438004,-9.213013c-0.222,-1.569992 -0.875,-2.470993 -1.971001,-5.61499c-1.094002,-3.146008 0.438995,-6.962994 0.655998,-8.312008c0.220001,-1.345993 0.655998,-6.289001 1.096001,-7.636993c0.437996,-1.350998 3.061996,-5.393997 3.227997,-6.348999s4.411003,-2.138 4.411003,-2.138c0.220001,-2.244995 1.550995,-3.871994 1.550995,-3.871994c0,-2.246002 7.657005,-8.537003 7.657005,-8.537003c2.405998,-1.798004 13.347004,-5.615005 16.188999,-6.291c2.845993,-0.671997 4.376999,1.125 4.376999,1.125c3.720001,-1.796997 7.000992,0 9.188995,1.347992c2.188004,1.348999 2.404007,3.595001 2.404007,3.595001c1.313995,1.572998 1.095993,-2.020996 1.095993,-2.020996s-0.873993,-4.492004 -4.156998,-5.615005c-3.281006,-1.125 -8.751999,-0.450989 -8.751999,-0.450989c-7.438004,-1.570007 -19.254002,4.270996 -22.755001,6.964996c-3.5,2.696991 -11.156998,12.354996 -11.156998,12.354996s-2.406998,2.022995 -4.594002,6.740005c-2.188995,4.718994 -2.626999,14.828003 -2.407997,16.849991c0.220001,2.021008 0.658005,3.816998 0.875999,6.964001z"/>
    <g id="svg_26">
     <path id="svg_27" d="m64.867004,26.71114c0.634995,-1.087997 3.169998,1.085999 5.069992,1.085999c1.902008,0 5.389999,-1.304993 7.608002,-0.869003c2.219009,0.437012 5.072998,2.177002 5.706009,3.697006c0.634995,1.520996 -0.951004,7.175995 -2.854004,7.610992c0,0 3.171997,3.480011 1.58699,4.785004c-1.58699,1.305008 -2.219986,0 -2.219986,-0.651993s0.316986,-2.393005 -0.951004,-2.828003c-1.268997,-0.434006 -2.854004,-1.957001 -2.854004,-1.957001s2.537003,0 3.805008,-1.305008c1.269989,-1.304993 0.634995,-3.696991 0,-4.784988c-0.633011,-1.088013 -2.218002,-3.044998 -3.805008,-3.044998c-1.584,0 -4.755005,1.304993 -6.975998,1.087997c-2.214005,-0.21701 -4.751007,-1.738007 -4.115997,-2.826004z"/>
     <path id="svg_28" d="m59.794003,33.017139c0,0 -3.486,3.914001 0,8.479004c3.485001,4.567993 3.169998,2.610992 3.169998,2.610992l-1.268997,1.738998c0,0 -2.534004,-3.695999 -4.756004,-3.478989c-2.218994,0.217987 -5.070999,2.174988 -6.021996,5.437988c-0.951004,3.262009 1.268997,5.873001 4.122002,6.307007c2.852997,0.436005 13.632,-0.651993 13.632,-0.651993s-0.953003,0.651993 -0.634995,1.73999c0.314987,1.085999 0.94899,2.393005 0.94899,2.393005s-2.533997,-2.17601 -8.875996,-1.959c-6.340004,0.220001 -8.561005,1.306 -11.096001,5.438004c-2.535004,4.133984 -0.949005,10.221996 0.318001,11.743984c1.266998,1.522003 6.974998,1.959015 7.605995,3.479004c0.635002,1.520996 -1.267998,3.045013 -1.584999,4.131012c-0.315002,1.088989 0.951004,1.958984 0.951004,1.958984s-3.487,-1.522003 -6.021004,-1.304993c-2.536995,0.21701 -7.292,2.609009 -7.292,2.609009s0.951004,0.435974 0.634003,1.087982s-0.951004,1.304993 -0.634003,1.957001c0.315002,0.652008 1.268005,1.085999 1.268005,1.085999s-1.585007,0.218994 -2.536003,-1.085999s0.950996,-1.52298 0.317001,-2.175995c-0.634003,-0.652985 -1.902,-0.43399 -1.902,-0.43399s0.951996,-0.220001 2.535995,-2.177002c1.585007,-1.957001 2.219002,-3.045013 4.438004,-3.045013c2.222,0 4.756996,0.218018 4.756996,0.218018s2.220001,-0.869019 1.269005,-2.175018c-0.951004,-1.304993 -8.243004,-2.175995 -8.243004,-2.175995s2.219002,-1.306 2.219002,-2.391998c0,-1.087997 -1.584,-3.263992 -4.437996,-4.785004c-2.854004,-1.522003 -5.072006,-3.915997 -5.072006,-8.480999s-1.208,-5.605988 -3.107994,-7.347992l0.666,-3c0,0 1.809998,4.041 3.711998,5.345993l4.754997,-2.175995c0,0 -0.950996,2.828003 -3.487,3.916c0,0 -1.901001,3.695999 -0.315002,6.307007c1.585007,2.609997 5.705002,4.56599 5.705002,4.56599s1.270004,-6.307995 1.902,-7.611004c0.633003,-1.304993 1.902,-2.607986 2.219002,-3.478989c0.316002,-0.869003 -1.902,-6.307999 -1.585999,-8.046997c0.318001,-1.738007 2.853996,-6.959015 7.609001,-7.396011c-0.002007,0.003998 0.632996,-7.606995 4.118996,-7.171997z"/>
     <path id="svg_29" d="m66.768997,43.890141c0,0 -2.537003,-0.649994 -4.755993,0.436005c-2.219002,1.087997 -3.805,4.349991 -1.902,6.089996c0,0 0.950996,0.651993 1.902,-0.436005c0,0 -0.316002,-4.565994 1.585999,-5.001999s3.169994,-1.087997 3.169994,-1.087997z"/>
     <path id="svg_30" d="m64.231995,38.019138c0,0 3.486008,-1.520996 6.656998,-0.651993c3.170013,0.868988 5.072006,4.78299 5.072006,4.78299s1.585007,-2.826004 -1.268997,-5c-2.854004,-2.175995 -7.60701,-0.871002 -9.826004,-0.651993c-2.217999,0.216995 -2.535999,0.432999 -0.634003,1.520996z"/>
     <path id="svg_31" d="m68.352997,36.279133c0,0 0.951996,-1.740005 -0.315002,-2.173996c-1.268997,-0.436005 -2.853989,-0.871002 -2.220001,-1.52301s3.805008,0.652008 4.756012,2.609009c0.949997,1.959 0.949997,1.959 0.949997,1.959l-3.171005,-0.871002z"/>
     <path id="svg_32" d="m70.889008,45.197147c0,0 6.022995,5.436005 6.022995,11.089996c0,5.656006 -2.854004,10.223003 -5.072006,10.223003s-2.220993,-1.957001 -3.803986,-1.522003c-1.585007,0.436996 -3.805008,2.395996 -1.585007,2.828003c2.220001,0.436996 4.438004,1.304993 6.339996,0.436996c1.901001,-0.871002 4.121002,-1.959 5.391006,-3.916c1.266998,-1.956997 0.94899,-6.089001 1.266998,-8.264996s-3.803009,-9.787003 -5.389999,-10.873001c-1.584,-1.090012 -3.169998,-1.960999 -3.169998,-0.001999z"/>
     <path id="svg_33" d="m57.257999,62.595142c0,0 2.536003,-0.436996 3.487,-1.522995c0.949997,-1.085999 1.266998,0.218994 0.633003,2.39299c-0.633003,2.174007 -0.950005,5.654003 -0.316002,7.178997c0.635002,1.521011 3.488003,5.653015 7.290997,5.218994c3.806,-0.436981 5.072998,-1.520996 6.024002,-2.825989c0.951004,-1.307007 2.852005,-1.522003 3.169006,-0.218994c0.315994,1.303986 -0.949005,2.828003 -1.585007,3.695984c-0.632996,0.869019 -0.317001,0.869019 -2.218994,1.520996c-1.902008,0.654022 -5.706009,1.52301 -8.876007,0.436005c-3.171001,-1.085999 -6.022999,-5.871002 -6.022999,-7.394989c0,-1.522003 -0.634995,-6.307007 -1.584999,-8.480999z"/>
    </g>
    <path id="svg_34" d="m34.493999,81.767151c0,0 0.345001,-8.243988 2.678001,-9.910004c2.334,-1.666 3.007996,-1.417999 3.080002,-2.136993c0.055,-0.555008 0.108994,-0.748001 -1.554001,-0.693008c-1.333,0.044998 -4.871002,2.406006 -4.871002,2.406006l0.667,10.334z"/>
    <path id="svg_35" d="m62.16,24.43314c0,0 -3,1 -2.333,2.666c0.667,1.667999 0.666,2.334 -0.667,2.334s-2,-2 -3.666,-1.334c-1.667,0.667999 -0.334,3.334 -2,3.667999c-1.667,0.332001 -2.334,-0.001999 -3.334,0.332001s-4.666,3 -4.333,4.334c0.333,1.332001 3.667,-2 4.667,-1.334c1,0.667999 2.666,1.666 1.333,2.334c-1.333,0.666 -5.333,0.666 -7,2.334c-1.667,1.666 -2.094002,2.613007 -3,1.666c-0.949997,-0.994003 2,-7 4,-8.666c2,-1.667999 12.999001,-9.001999 16.333,-8.334z"/>
    <path id="svg_36" d="m40.996998,53.131138c0,0 -1.689003,0.705002 -2.206001,0.518997c-0.517998,-0.188004 -1.830002,-1.360992 -2.487999,-2.628998c-0.655998,-1.268997 -0.375,-2.255005 -0.094002,-2.910004l-1.407997,1.408005l-0.750999,5.113998l0.422997,-0.375c0,0 0.140999,-1.268005 0.609001,-1.220993c0.470001,0.046997 1.501999,0.938995 1.501999,0.938995l3.005005,0.421997l1.454994,-0.845993l-0.046997,-0.421005z"/>
    <path id="svg_37" d="m36.728001,69.720139c0,0 -1.054001,0.554993 -1.524002,0.334c-0.473,-0.223999 -0.666,-1 -0.666,-1l0.416,2.108002l1.108002,0l0.666,-1.442001z"/>
    <path id="svg_38" d="m75.826996,72.267136c0.867996,0.521011 1.69101,0.930008 1.524002,1.430008s-1.524002,13.735992 -7.524002,14.069977c-5.999996,0.332001 -11.166996,-1.5 -14.166996,0.5s0.334,3.832001 0.334,3.832001s0.334,2.334015 -2.334,0.5c0,0 -0.832001,0.5 -1,0c-0.166,-0.5 -0.333,-3.997986 1.167,-4.832001s3.667,-1.5 4.667,-2.167999c1,-0.665985 7.836002,0.76001 9.670002,0.432007c3.843002,-0.690979 3.578003,-4.028992 5.078003,-6.528992s1.751999,-7.735001 2.584991,-7.235001z"/>
    <path id="svg_39" d="m36.493999,86.099152c0,0 1.333,3.667999 3.333,3.667999c0,0 -2.667,1 -2.333,2.332001c0.333,1.333984 -1,-6 -1,-6z"/>
    <path id="svg_40" d="m69.261002,92.086151c0,0 1.547989,-3.174011 4.547989,-3.360992c3,-0.187012 2.560013,-0.205994 3.560013,-0.39502c1,-0.187988 2.584,-3.417999 3.645996,-3.667999c1.061996,-0.25 1.438004,-0.625 1.875,-0.437988c0.438004,0.187012 0.188004,0.687988 -0.061996,0.812012s-1.188004,0.25 -1.625,0.5c-0.438004,0.25 -1.25,2.875 -3,3.687988c-1.75,0.812988 -3.112,0.895996 -3.80101,1.082001c-0.687988,0.187988 -2.891998,1.395996 -3.953995,2.770996c0,-0.001007 -1.582001,0.590973 -1.186996,-0.990997z"/>
   </g>
   <path id="svg_41" d="m47.604,8.334141l-8.958,3.016006l-0.061996,9.303986c-0.294006,-0.035995 -0.616005,-0.025986 -0.954002,0.034012c-1.365997,0.250992 -2.473,1.259995 -2.473,2.253998c0,0.992004 1.104996,1.595993 2.473,1.347c1.362999,-0.25 2.469002,-1.259003 2.469002,-2.251999c0,-0.036011 -0.012001,-0.067001 -0.014999,-0.104004l0,-7.824997l6.017998,-2.029007l0,5.95401c-0.299004,-0.039001 -0.625999,-0.031006 -0.972,0.030991c-1.365997,0.251007 -2.473,1.26001 -2.473,2.253998c0,0.992004 1.104996,1.596008 2.473,1.347c1.334,-0.242996 2.413002,-1.215988 2.459999,-2.187988l0.012001,0l0.001999,-11.143005z"/>
   <path id="svg_42" d="m14.604,37.334141l-8.958001,3.016006l-0.062,9.303986c-0.293999,-0.035995 -0.616001,-0.025986 -0.953999,0.034012c-1.366001,0.250992 -2.472999,1.259995 -2.472999,2.253998c0,0.992004 1.105,1.595993 2.472999,1.347c1.362999,-0.25 2.468998,-1.259003 2.468998,-2.251999c0,-0.036011 -0.011997,-0.067001 -0.014999,-0.104004l0,-7.824997l6.018002,-2.029007l0,5.95401c-0.299,-0.039001 -0.625999,-0.031006 -0.972,0.030991c-1.366001,0.251007 -2.473,1.26001 -2.473,2.253998c0,0.992004 1.105,1.596008 2.473,1.347c1.334,-0.242996 2.412998,-1.215988 2.459999,-2.187988l0.012001,0l0.001999,-11.143005z"/>
   <path id="svg_43" d="m25.604,59.334141l-8.958,3.016006l-0.062,9.303982c-0.293999,-0.035995 -0.616001,-0.025986 -0.953999,0.034012c-1.366001,0.250992 -2.473,1.26001 -2.473,2.253998c0,0.992004 1.105,1.596008 2.473,1.346985c1.362999,-0.25 2.468998,-1.258972 2.468998,-2.251984c0,-0.036011 -0.011997,-0.067017 -0.014999,-0.104004l0,-7.824997l6.018002,-2.029003l0,5.954006c-0.299004,-0.039001 -0.625999,-0.031006 -0.972,0.030991c-1.365997,0.251007 -2.473,1.26001 -2.473,2.253998c0,0.992004 1.104996,1.595993 2.473,1.347c1.334,-0.242996 2.413002,-1.215988 2.459999,-2.187988l0.012001,0l0.001999,-11.143002z"/>
   <path id="svg_44" d="m117.104004,0.334141l-8.958008,3.016006l-0.061996,9.303986c-0.293991,-0.035995 -0.615997,-0.025986 -0.953995,0.034012c-1.365997,0.250992 -2.473007,1.259995 -2.473007,2.253998c0,0.992004 1.105011,1.595993 2.473007,1.347c1.362991,-0.25 2.468994,-1.259003 2.468994,-2.251999c0,-0.036011 -0.011993,-0.067001 -0.014999,-0.104004l0,-7.824997l6.018005,-2.029007l0,5.95401c-0.298996,-0.039001 -0.626007,-0.031006 -0.972,0.030991c-1.365997,0.251007 -2.473007,1.26001 -2.473007,2.253998c0,0.992004 1.105011,1.596008 2.473007,1.347c1.334,-0.242996 2.412994,-1.215988 2.460007,-2.187988l0.011993,0l0.001999,-11.143005z"/>
   <path id="svg_45" d="m159.436996,16.834141l-8.957993,3.016006l-0.062012,9.303986c-0.293991,-0.035995 -0.615997,-0.025986 -0.953995,0.034012c-1.365997,0.250992 -2.473007,1.259995 -2.473007,2.253998c0,0.992004 1.105011,1.595993 2.473007,1.347c1.363007,-0.25 2.468994,-1.259003 2.468994,-2.251999c0,-0.036011 -0.011993,-0.067001 -0.014999,-0.104004l0,-7.824997l6.018005,-2.029007l0,5.95401c-0.298996,-0.039001 -0.626007,-0.031006 -0.972,0.030991c-1.365997,0.251007 -2.473007,1.26001 -2.473007,2.253998c0,0.992004 1.105011,1.596008 2.473007,1.347c1.334,-0.242996 2.412994,-1.215988 2.459991,-2.187988l0.012009,0l0.001999,-11.143005z"/>
   <path id="svg_46" d="m153.104004,44.334141l-8.958008,3.016006l-0.061996,9.303986c-0.293991,-0.035995 -0.615997,-0.025986 -0.953995,0.034012c-1.365997,0.250992 -2.473007,1.259995 -2.473007,2.253998c0,0.992004 1.105011,1.595993 2.473007,1.347c1.362991,-0.25 2.468994,-1.259003 2.468994,-2.251999c0,-0.036011 -0.011993,-0.067001 -0.014999,-0.104004l0,-7.824997l6.018005,-2.029007l0,5.95401c-0.298996,-0.039001 -0.626007,-0.031006 -0.972,0.030991c-1.365997,0.251007 -2.473007,1.26001 -2.473007,2.253998c0,0.992004 1.105011,1.596008 2.473007,1.347c1.334,-0.242996 2.412994,-1.215988 2.460007,-2.187988l0.011993,0l0.001999,-11.143005z"/>
   <polygon id="svg_47" points="167.2419891357422,116.02115249633789 3.8790013790130615,116.02115249633789 4.281001567840576,94.99414443969727 167.6439971923828,94.99414443969727 " fill="#9999FF"/>
   <path id="svg_48" d="m122.514999,94.939148l9,0c0,0 -0.570007,-2.296997 -2.574005,-2.35199c-2.001999,-0.052032 -6.427994,2.352966 -6.425995,2.35199z" fill="#FF9900"/>
   <path id="svg_49" d="m53.993999,91.705139c0,0 -2.922997,-0.893005 -5.253998,-0.796997c-2.333,0.093994 -3.339005,2.085999 -3.339005,2.085999s2.432999,-0.985992 3.759003,-0.96701c1.326996,0.02002 3.676003,1.02301 3.676003,1.02301l1.157997,-1.345001z"/>
   <rect id="svg_50" height="25.333" width="170" stroke="#000000" fill="#BCAEED" y="92.33414" x="0"/>
   <g id="svg_51">
    <g id="svg_52">
     <path id="svg_53" d="m7.786998,95.568146l5.039002,0l3.993999,10.520996l4.229,-10.520996l5.092003,0l2.977997,19.687988l-5.118004,0l-1.436996,-11.332001l-0.052002,0l-4.724998,11.332001l-2.035999,0l-4.519001,-11.332001l-0.052002,0l-1.642998,11.332001l-5.092999,0l3.342999,-19.687988z" fill="#6600CC"/>
     <path id="svg_54" d="m35.855,101.861145l0,7.153992c0,1.697021 0.417999,2.895996 2.375999,2.895996s2.375999,-1.198975 2.375999,-2.895996l0,-7.153992l4.751999,0l0,8.06601c0,4.414001 -3.105995,5.770996 -7.127998,5.770996c-4.020996,0 -7.127998,-1.356995 -7.127998,-5.770996l0,-8.06601l4.751999,0z" fill="#6600CC"/>
     <path id="svg_55" d="m57.239002,105.306122c-0.730003,-0.391998 -1.748001,-0.651001 -2.558998,-0.651001c-0.548004,0 -1.487999,0.233002 -1.487999,0.912994c0,0.914001 1.487999,1.045013 2.141998,1.175995c2.220001,0.443024 3.890999,1.488007 3.890999,3.969025c0,3.523987 -3.211998,4.985992 -6.317001,4.985992c-1.905998,0 -3.785995,-0.548004 -5.404999,-1.540009l1.723999,-3.315002c0.966003,0.679016 2.584999,1.356995 3.760002,1.356995c0.601997,0 1.487999,-0.287994 1.487999,-1.019989c0,-1.045013 -1.487999,-1.096008 -2.976997,-1.487c-1.489006,-0.391998 -2.978004,-1.122986 -2.978004,-3.523987c0,-3.289001 2.978004,-4.753021 5.901001,-4.753021c1.514,0 3.028,0.235016 4.412003,0.862l-1.594002,3.027008z" fill="#6600CC"/>
     <path id="svg_56" d="m66.820999,96.717133c0,1.463013 -1.19899,2.664001 -2.662003,2.664001s-2.662991,-1.200989 -2.662991,-2.664001c0,-1.460999 1.199997,-2.661987 2.662991,-2.661987s2.662003,1.200989 2.662003,2.661987zm-0.287003,18.539001l-4.751995,0l0,-13.394989l4.751995,0l0,13.394989z" fill="#6600CC"/>
     <path id="svg_57" d="m79.328003,106.220123c-0.705002,-0.520996 -1.540009,-0.938995 -2.45401,-0.938995c-1.826996,0 -3.264999,1.410004 -3.264999,3.264008c0,1.93399 1.38501,3.290985 3.343002,3.290985c0.835999,0 1.75,-0.339996 2.376007,-0.914001l0,4.020996c-1.044006,0.520996 -2.193008,0.757019 -3.343002,0.757019c-3.968994,0 -7.283005,-2.950012 -7.283005,-6.997009c0,-4.309998 3.289001,-7.283997 7.492004,-7.283997c1.097992,0 2.192993,0.261993 3.134003,0.781982l0,4.019012z" fill="#6600CC"/>
     <path id="svg_58" d="m82.382004,115.256134l0,-19.687988l7.311996,0c3.498001,0 5.849991,1.356995 5.849991,5.117981c0,1.774017 -0.574997,3.210999 -2.167999,4.020996l0,0.053009c2.819,0.36499 4.020996,2.270996 4.020996,5.014008c0,4.125 -3.523987,5.481995 -7.127991,5.481995l-7.886993,0l0,0zm5.117996,-11.958984l0.574005,0c1.355988,0 2.76799,-0.233002 2.76799,-1.903992c0,-1.803009 -1.593002,-1.906006 -2.97699,-1.906006l-0.365005,0l0,3.809998zm0,8.042999l0.651001,0c1.516006,0 4.072998,0.078003 4.072998,-2.089996c0,-2.375 -2.531998,-2.140991 -4.203003,-2.140991l-0.520996,0l0,4.230988l0,0z" fill="#6600CC"/>
     <path id="svg_59" d="m104.707001,104.054138l0.052994,0c0.91301,-1.645996 2.480011,-2.377014 4.334,-2.377014l0.914001,0l0,4.569c-0.653,-0.365997 -1.278992,-0.444 -2.011002,-0.444c-2.638,0 -3.289993,1.75 -3.289993,4.047028l0,5.404999l-4.751999,0l0,-13.39502l4.751999,0l0,2.195007z" fill="#6600CC"/>
     <path id="svg_60" d="m126.429993,115.256134l-4.751999,0l0,-1.488007l-0.052994,0c-0.835007,1.332001 -2.479004,1.933014 -4.047012,1.933014c-3.970001,0 -6.763,-3.315002 -6.763,-7.153015s2.741013,-7.128998 6.710007,-7.128998c1.539993,0 3.158997,0.575012 4.151001,1.75l0,-1.306l4.751999,0l0.001999,13.393005l0,0zm-10.705002,-6.684998c0,1.696014 1.123001,3.002991 3.054993,3.002991c1.934006,0 3.056,-1.306976 3.056,-3.002991c0,-1.645996 -1.121994,-3.028015 -3.056,-3.028015c-1.931992,0 -3.054993,1.382019 -3.054993,3.028015z" fill="#6600CC"/>
     <path id="svg_61" d="m134.627991,96.717133c0,1.463013 -1.201004,2.664001 -2.662994,2.664001s-2.66301,-1.200989 -2.66301,-2.664001c0,-1.460999 1.201004,-2.661987 2.66301,-2.661987s2.662994,1.200989 2.662994,2.661987zm-0.286987,18.539001l-4.751999,0l0,-13.394989l4.751999,0l0,13.394989z" fill="#6600CC"/>
     <path id="svg_62" d="m142.22699,103.586151l0.052002,0c1.097992,-1.618988 2.429993,-2.167999 4.281998,-2.167999c3.604004,0 5.039001,2.270996 5.039001,5.562012l0,8.276001l-4.751999,0l0,-6.526001c0,-1.279999 0.209,-3.525024 -2.141006,-3.525024c-1.93399,0 -2.479996,1.437012 -2.479996,3.107025l0,6.944l-4.751999,0l0,-13.39502l4.751999,0l0,1.725006z" fill="#6600CC"/>
     <path id="svg_63" d="m166.953003,111.312134l0,3.941986l-13.576996,0l6.292999,-9.451996l-5.457001,0l0,-3.940979l13.367996,0l-6.268005,9.450989l5.641006,0z" fill="#6600CC"/>
    </g>
    <g id="svg_64">
     <path id="svg_65" d="m7.786998,95.568146l5.039002,0l3.993999,10.520996l4.229,-10.520996l5.092003,0l2.977997,19.687988l-5.118004,0l-1.436996,-11.332001l-0.052002,0l-4.724998,11.332001l-2.035999,0l-4.519001,-11.332001l-0.052002,0l-1.642998,11.332001l-5.092999,0l3.342999,-19.687988z" fill="#34176B"/>
     <path id="svg_66" d="m35.855,101.861145l0,7.153992c0,1.697021 0.417999,2.895996 2.375999,2.895996s2.375999,-1.198975 2.375999,-2.895996l0,-7.153992l4.751999,0l0,8.06601c0,4.414001 -3.105995,5.770996 -7.127998,5.770996c-4.020996,0 -7.127998,-1.356995 -7.127998,-5.770996l0,-8.06601l4.751999,0z" fill="#34176B"/>
     <path id="svg_67" d="m57.239002,105.306122c-0.730003,-0.391998 -1.748001,-0.651001 -2.558998,-0.651001c-0.548004,0 -1.487999,0.233002 -1.487999,0.912994c0,0.914001 1.487999,1.045013 2.141998,1.175995c2.220001,0.443024 3.890999,1.488007 3.890999,3.969025c0,3.523987 -3.211998,4.985992 -6.317001,4.985992c-1.905998,0 -3.785995,-0.548004 -5.404999,-1.540009l1.723999,-3.315002c0.966003,0.679016 2.584999,1.356995 3.760002,1.356995c0.601997,0 1.487999,-0.287994 1.487999,-1.019989c0,-1.045013 -1.487999,-1.096008 -2.976997,-1.487c-1.489006,-0.391998 -2.978004,-1.122986 -2.978004,-3.523987c0,-3.289001 2.978004,-4.753021 5.901001,-4.753021c1.514,0 3.028,0.235016 4.412003,0.862l-1.594002,3.027008z" fill="#34176B"/>
     <path id="svg_68" d="m66.820999,96.717133c0,1.463013 -1.19899,2.664001 -2.662003,2.664001s-2.662991,-1.200989 -2.662991,-2.664001c0,-1.460999 1.199997,-2.661987 2.662991,-2.661987s2.662003,1.200989 2.662003,2.661987zm-0.287003,18.539001l-4.751995,0l0,-13.394989l4.751995,0l0,13.394989z" fill="#34176B"/>
     <path id="svg_69" d="m79.328003,106.220123c-0.705002,-0.520996 -1.540009,-0.938995 -2.45401,-0.938995c-1.826996,0 -3.264999,1.410004 -3.264999,3.264008c0,1.93399 1.38501,3.290985 3.343002,3.290985c0.835999,0 1.75,-0.339996 2.376007,-0.914001l0,4.020996c-1.044006,0.520996 -2.193008,0.757019 -3.343002,0.757019c-3.968994,0 -7.283005,-2.950012 -7.283005,-6.997009c0,-4.309998 3.289001,-7.283997 7.492004,-7.283997c1.097992,0 2.192993,0.261993 3.134003,0.781982l0,4.019012z" fill="#34176B"/>
     <path id="svg_70" d="m82.382004,115.256134l0,-19.687988l7.311996,0c3.498001,0 5.849991,1.356995 5.849991,5.117981c0,1.774017 -0.574997,3.210999 -2.167999,4.020996l0,0.053009c2.819,0.36499 4.020996,2.270996 4.020996,5.014008c0,4.125 -3.523987,5.481995 -7.127991,5.481995l-7.886993,0l0,0zm5.117996,-11.958984l0.574005,0c1.355988,0 2.76799,-0.233002 2.76799,-1.903992c0,-1.803009 -1.593002,-1.906006 -2.97699,-1.906006l-0.365005,0l0,3.809998zm0,8.042999l0.651001,0c1.516006,0 4.072998,0.078003 4.072998,-2.089996c0,-2.375 -2.531998,-2.140991 -4.203003,-2.140991l-0.520996,0l0,4.230988l0,0z" fill="#34176B"/>
     <path id="svg_71" d="m104.707001,104.054138l0.052994,0c0.91301,-1.645996 2.480011,-2.377014 4.334,-2.377014l0.914001,0l0,4.569c-0.653,-0.365997 -1.278992,-0.444 -2.011002,-0.444c-2.638,0 -3.289993,1.75 -3.289993,4.047028l0,5.404999l-4.751999,0l0,-13.39502l4.751999,0l0,2.195007z" fill="#34176B"/>
     <path id="svg_72" d="m126.429993,115.256134l-4.751999,0l0,-1.488007l-0.052994,0c-0.835007,1.332001 -2.479004,1.933014 -4.047012,1.933014c-3.970001,0 -6.763,-3.315002 -6.763,-7.153015s2.741013,-7.128998 6.710007,-7.128998c1.539993,0 3.158997,0.575012 4.151001,1.75l0,-1.306l4.751999,0l0.001999,13.393005l0,0zm-10.705002,-6.684998c0,1.696014 1.123001,3.002991 3.054993,3.002991c1.934006,0 3.056,-1.306976 3.056,-3.002991c0,-1.645996 -1.121994,-3.028015 -3.056,-3.028015c-1.931992,0 -3.054993,1.382019 -3.054993,3.028015z" fill="#34176B"/>
     <path id="svg_73" d="m134.627991,96.717133c0,1.463013 -1.201004,2.664001 -2.662994,2.664001s-2.66301,-1.200989 -2.66301,-2.664001c0,-1.460999 1.201004,-2.661987 2.66301,-2.661987s2.662994,1.200989 2.662994,2.661987zm-0.286987,18.539001l-4.751999,0l0,-13.394989l4.751999,0l0,13.394989z" fill="#34176B"/>
     <path id="svg_74" d="m142.22699,103.586151l0.052002,0c1.097992,-1.618988 2.429993,-2.167999 4.281998,-2.167999c3.604004,0 5.039001,2.270996 5.039001,5.562012l0,8.276001l-4.751999,0l0,-6.526001c0,-1.279999 0.209,-3.525024 -2.141006,-3.525024c-1.93399,0 -2.479996,1.437012 -2.479996,3.107025l0,6.944l-4.751999,0l0,-13.39502l4.751999,0l0,1.725006z" fill="#34176B"/>
     <path id="svg_75" d="m166.953003,111.312134l0,3.941986l-13.576996,0l6.292999,-9.451996l-5.457001,0l0,-3.940979l13.367996,0l-6.268005,9.450989l5.641006,0z" fill="#34176B"/>
    </g>
   </g>
  </g>
 </g>
</svg>