<svg version="1.2" xmlns="http://www.w3.org/2000/svg" viewBox="0 0 762 170" width="100%" height="100%">
	<g>
		<g>
			<g>
				<path fill-rule="evenodd" class="ytColor1" d="m352.8 154.6q-7.2-4.9-10.3-15.1-3-10.3-3-27.3v-15.5q0-17.2 3.5-27.6 3.4-10.4 10.8-15.2 7.4-4.8 19.4-4.8 11.8 0 18.9 4.9 7.1 4.8 10.5 15.2 3.3 10.3 3.3 27.5v15.5q0 17-3.3 27.3-3.2 10.4-10.4 15.2-7.2 4.7-19.5 4.7-12.7 0-19.9-4.8zm26.9-16.7q2-5.2 2-17v-33.2q0-11.5-2-16.8-2-5.3-7-5.3-4.9 0-6.9 5.3-2 5.3-2 16.8v33.2q0 11.8 1.9 17 1.9 5.2 7 5.2 5 0 7-5.2z"/>
				<path fill-rule="evenodd" class="ytColor1" d="m721.8 112.4v5.4q0 10.3 0.6 15.4 0.6 5.1 2.5 7.5 1.9 2.3 5.9 2.3 5.4 0 7.4-4.2 2-4.1 2.2-13.9l20.7 1.3q0.2 1.3 0.2 3.8 0 14.7-8.1 22-8.1 7.3-22.9 7.3-17.7 0-24.8-11.1-7.1-11.1-7.1-34.4v-18.6q0-24 7.3-35 7.4-11 25.3-11 12.4 0 19 4.5 6.6 4.5 9.3 14.1 2.6 9.5 2.6 26.4v18.2zm3.1-44.8q-1.8 2.3-2.4 7.4-0.7 5.1-0.7 15.5v7.7h17.6v-7.7q0-10.2-0.7-15.5-0.7-5.3-2.5-7.5-1.8-2.2-5.7-2.2-3.8 0-5.6 2.3z"/>
				<path class="ytColor1" d="m294.4 110.4l-27.3-98.5h23.8l9.6 44.7q3.6 16.5 5.3 28.1h0.7q1.3-8.3 5.4-28l9.9-44.8h23.8l-27.6 98.5v47.3h-23.6z"/>
				<path class="ytColor1" d="m483.3 51.2v106.5h-18.8l-2.1-13h-0.5q-7.6 14.7-22.9 14.7-10.6 0-15.7-6.9-5-7-5-21.7v-79.6h24v78.2q0 7.1 1.5 10.1 1.6 3.1 5.2 3.1 3.2 0 6-1.9 2.9-1.9 4.3-4.9v-84.6z"/>
				<path class="ytColor1" d="m606.3 51.2v106.5h-18.8l-2.1-13h-0.5q-7.7 14.7-22.9 14.7-10.6 0-15.7-6.9-5-7-5-21.7v-79.6h24v78.2q0 7.1 1.5 10.1 1.6 3.1 5.2 3.1 3.2 0 6-1.9 2.9-1.9 4.3-4.9v-84.6z"/>
				<path class="ytColor1" d="m548.4 31.2h-23.8v126.5h-23.4v-126.5h-23.8v-19.3h71z"/>
				<path fill-rule="evenodd" class="ytColor1" d="m687.8 96.2v16.8q0 23.8-5.7 35.1-5.8 11.2-17.9 11.2-6.8 0-12.4-3.2-5.5-3.1-8.3-8.5h-0.5l-2.5 10.1h-19.8v-151.2h23.1v56.2h0.2q3.1-6.1 8.9-9.9 5.7-3.7 12.3-3.7 8.5 0 13.4 4.5 4.8 4.5 7 14.6 2.2 10.1 2.2 28zm-24.2 1.7q0-12.5-0.7-19.3-0.8-6.7-2.8-9.6-2-2.9-5.7-2.9-3.4 0-6.4 2.8-3 2.8-4.2 7.1v60.5q1.6 2.8 4.1 4.2 2.5 1.4 5.5 1.4 3.8 0 6.1-2.8 2.2-2.8 3.2-9.4 0.9-6.6 0.9-18.2z"/>
			</g>
		</g>
		<g>
			<path class="ytColor3" d="m238 26.4c-2.8-10.5-11-18.7-21.5-21.5-18.9-5.1-94.9-5.1-94.9-5.1 0 0-76 0-94.9 5.1-10.5 2.8-18.7 11-21.5 21.5-5.1 18.9-5.1 58.5-5.1 58.5 0 0 0 39.5 5.1 58.5 2.8 10.4 11 18.6 21.5 21.4 18.9 5.1 94.9 5.1 94.9 5.1 0 0 76 0 94.9-5.1 10.5-2.8 18.7-11 21.5-21.4 5.1-19 5.1-58.5 5.1-58.5 0 0 0-39.6-5.1-58.5z"/>
			<path class="ytColor2" d="m97.3 121.3v-72.9l63.1 36.5z"/>
		</g>
	</g>
</svg>