<svg xmlns="http://www.w3.org/2000/svg" viewBox="0 0 320 185" width="100%" height="100%">
	<style>
		tspan { white-space:pre }
		.shp0 { fill: #f0efef } 
		.shp1 { fill: #247e3f } 
		.shp2 { fill: #333333 } 
		.shp3 { fill: #ffffff } 
	</style>
	<g >
		<path class="shp0" d="M5 3.92L2.15 6.85L2 177L8 183L312.15 183L318 177L318 7L312 1L7.85 1" />
		<path class="shp1" d="M20.02 13.25C18.19 14.49 15.82 16.63 14.77 18C13.47 19.69 12.85 22.12 12.85 25.5C12.84 28.25 16.28 60.42 20.49 97C26.34 147.87 28.55 164.21 29.88 166.5C30.83 168.15 33.16 170.53 35.06 171.78C37.51 173.4 39.94 174.05 43.5 174.03C46.25 174.01 75.27 170.27 108 165.71C151.01 159.72 168.26 156.94 170.25 155.71C171.76 154.77 173.9 152.54 175 150.75C176.43 148.42 176.99 145.74 177 141.25C177 135 177 135 171.6 129.75C168.29 126.53 165 121.99 163.1 118C161.39 114.42 159.48 108.58 158.87 105C158.03 100.17 158.04 96.83 158.88 92C159.5 88.42 161.41 82.58 163.11 79C165.02 74.99 168.27 70.49 171.6 67.25L177 62C176.99 40.26 176.69 38.01 175 35.25C173.9 33.46 171.99 31.36 170.75 30.58C169.34 29.69 143.04 25.76 100.5 20.07C63.1 15.08 30.44 10.99 27.93 10.99C24.86 11 22.27 11.74 20.02 13.25Z" />
		<path class="shp2" d="M213 54L213 66C188.59 66.57 185.87 66.95 182.5 68.72C180.3 69.88 176.83 72.56 174.8 74.67C172.76 76.77 170.07 80.75 168.82 83.5C166.95 87.6 166.54 90.21 166.56 98C166.58 106.05 166.97 108.34 169.13 113C170.53 116.03 172.99 120.01 174.59 121.85C176.19 123.69 179.97 126.39 183 127.85C188.36 130.43 189.05 130.51 209.75 130.75L231 131L231 42L213 42M241 86.5L241 131C282.94 130.51 283.64 130.43 289 127.85C292.19 126.31 296.3 123.16 298.79 120.35C301.15 117.68 303.85 113.25 304.79 110.5C305.89 107.25 306.48 102.52 306.44 97C306.41 90.52 305.87 87.31 304.2 83.5C303 80.75 300.1 76.61 297.76 74.3C295.42 71.99 291.7 69.32 289.5 68.37C286.55 67.1 282.01 66.56 272.25 66.32L259 66L259 42L241 42M53.04 54.96L53 67L42 67L42 81L53 81C53.08 111.75 53.48 117.57 54.55 120.5C55.36 122.7 56.8 125.35 57.76 126.39C58.72 127.43 61.3 129.11 63.5 130.12C66.5 131.5 69.94 131.96 77.25 131.98L87 132L87 118C78 118.06 75.72 117.49 73.75 116.03L71 114L71 81L92.5 81.5L112.5 132.04L132.27 131.5C152.95 83.45 158.97 68.94 158.98 68.25C158.99 67.32 156.66 67.06 149.91 67.25L140.82 67.5C128.56 97.72 124.51 107.63 123.91 109C122.92 111.26 122.02 109.35 114.65 89.5L106.48 67.5L71 67L70.5 43.5L53.08 42.92" />
		<path class="shp3" d="M146 47.92C144.35 49.62 143.11 52.03 143.04 53.67C142.98 55.23 143.77 57.63 144.8 59C145.83 60.38 147.99 61.86 149.59 62.3C151.47 62.82 153.51 62.64 155.34 61.8C156.9 61.09 158.83 59.15 159.63 57.5C160.42 55.85 160.83 53.26 160.54 51.75C160.24 50.24 158.76 48.08 157.25 46.97C155.74 45.85 153.23 44.95 151.67 44.97C149.9 44.99 147.79 46.09 146 47.92Z" />
		<path class="shp0" d="M193.02 81.75C191.11 82.71 188.51 85.08 187.26 87C186 88.92 184.71 92.53 184.38 95C184.06 97.47 184.33 101.53 184.99 104C185.64 106.47 186.97 109.63 187.94 111C188.91 112.38 191.56 114.29 193.85 115.25C196.56 116.39 200.61 117 205.5 117L213 117L213 80C198.89 80 195.49 80.51 193.02 81.75ZM259.12 98.38L259 117C276.01 116.55 278.37 116.11 280.55 114.5C282.04 113.4 284.21 111.23 285.38 109.68C287.02 107.49 287.57 105.13 287.8 99.18C288.03 93.28 287.68 90.7 286.3 88.07C285.31 86.19 283.23 83.71 281.67 82.57C279.38 80.89 277 80.43 269.04 80.13L259.24 79.77" />
		<path class="shp2" d="M44.83 86.73L44.38 89.5L42.13 84.5C42 88.38 42.54 90.07 43.23 90.77C43.93 91.46 45.26 92.03 46.18 92.02C47.1 92.01 48.56 91.33 49.43 90.5C50.29 89.67 51 87.88 51 86.5C51 85.13 50.55 84 50 84C49.45 84 49 85.13 49 86.5C49 87.88 48.55 89 48 89C47.45 89 47.05 88.13 47.1 87.06C47.16 85.99 46.77 84.86 46.24 84.54C45.71 84.23 45.08 85.21 44.83 86.73ZM42 94C42 94.55 42.67 95 43.5 95C44.33 95 45 95.67 45 96.5C45 97.33 44.33 98 43.5 98C42.33 98 42.02 99.27 42.08 103.75C42.12 106.91 42.35 108.94 42.58 108.25C42.81 107.56 44.58 107 46.5 107C48.72 107 50.18 106.45 50.5 105.5C50.89 104.33 50.11 104 47 104C44.11 104 43 103.58 43 102.5C43 101.45 44.06 101 46.5 101C48.94 101 50 100.55 50 99.5C50 98.67 49.33 98 48.5 98C47.67 98 47 97.33 47 96.5C47 95.67 47.89 95 49 95C50.1 95 51 94.55 51 94C51 93.45 48.98 93 46.5 93C44.02 93 42 93.45 42 94Z" />
	</g>
</svg>