<svg xmlns="http://www.w3.org/2000/svg" viewBox="0 0 24 24" width="100%" height="100%">
	<style>
		.shp0 { fill: none !important; stroke-width: 2 } 
	</style>
	<path class="textColor" d="M16.64 11.17Q17.27 11.17 17.74 10.79Q18.21 10.41 18.26 9.84L19.37 9.84Q19.34 10.43 18.97 10.96Q18.59 11.49 17.96 11.81Q17.34 12.13 16.64 12.13Q15.24 12.13 14.41 11.19Q13.58 10.25 13.58 8.63L13.58 8.43Q13.58 7.43 13.95 6.65Q14.32 5.87 15.01 5.44Q15.7 5 16.64 5Q17.79 5 18.55 5.7Q19.32 6.39 19.37 7.49L18.26 7.49Q18.21 6.83 17.75 6.4Q17.3 5.97 16.64 5.97Q15.74 5.97 15.25 6.62Q14.76 7.26 14.76 8.48L14.76 8.7Q14.76 9.89 15.25 10.53Q15.74 11.17 16.64 11.17Z" />
	<path class="textColor" d="M8.16 8.84L9.48 8.84Q9.29 10.42 8.31 11.28Q7.33 12.14 5.7 12.14Q3.94 12.14 2.87 10.87Q1.81 9.61 1.81 7.49L1.81 6.53Q1.81 5.14 2.31 4.09Q2.8 3.04 3.71 2.48Q4.62 1.91 5.82 1.91Q7.41 1.91 8.36 2.8Q9.32 3.68 9.48 5.25L8.16 5.25Q7.99 4.06 7.41 3.52Q6.84 2.99 5.82 2.99Q4.56 2.99 3.84 3.92Q3.13 4.85 3.13 6.57L3.13 7.53Q3.13 9.15 3.81 10.11Q4.49 11.06 5.7 11.06Q6.8 11.06 7.38 10.57Q7.97 10.07 8.16 8.84Z" />
	<path class="textColor shp0" d="M16.5 3L16.5 3C19.54 3 22 5.46 22 8.5L22 8.5C22 11.54 19.54 14 16.5 14L16.5 14C13.46 14 11 11.54 11 8.5L11 8.5C11 5.46 13.46 3 16.5 3Z" />
	<path class="textColor shp0" d="M12.11 12.18L12.83 12.88L6.17 19.67L5.46 18.97L12.11 12.18Z" />
</svg>